# xmcd
#
# Track frame offsets:
#       150
#       11165
#       33960
#       45822
#       58850
#       68445
#       79172
#       92002
#       110695
#       123242
#       134772
#       144362
#       154022
#       178235
#       186010
#       193240
#       206465
#       215205
#       227210
#       241777
#
# Disc length: 3357 seconds
#
# Revision: 1
# Processed by: cddbd v1.4PL0 Copyright (c) Steve Scherf et al.
# Submitted via: MusiCat 1.1
#
DISCID=1c0d1b14
DTITLE=Various Artist - Ultimate Rock 'N' Roll
DYEAR=1900
DGENRE=
TTITLE0=Sheila
TTITLE1=Sweet pea
TTITLE2=Everybody
TTITLE3=Dizzy
TTITLE4=Rubberball
TTITLE5=Walking with me angel
TTITLE6=Take good care of my baby
TTITLE7=Chapel of Love
TTITLE8=Iko-iko
TTITLE9=Peppermint Twist
TTITLE10=Hey let's twist
TTITLE11=What kind of love is this
TTITLE12=Shout
TTITLE13=Send me the pillow that you dream on
TTITLE14=Heartaches by the number
TTITLE15=Let it be me
TTITLE16=That's alright Mama
TTITLE17=The one who really loves you
TTITLE18=You beat me to the punch
TTITLE19=Sea cruise
EXTD=0\n\n\n
EXTT0=
EXTT1=
EXTT2=
EXTT3=
EXTT4=
EXTT5=
EXTT6=
EXTT7=
EXTT8=
EXTT9=
EXTT10=
EXTT11=
EXTT12=
EXTT13=
EXTT14=
EXTT15=
EXTT16=
EXTT17=
EXTT18=
EXTT19=
PLAYORDER=
